<svg id="Ebene_1" data-name="Ebene 1" xmlns="http://www.w3.org/2000/svg" viewBox="0 0 192 96" height="96" width="192"><defs><style>.cls-1{fill:#f8d200;}.cls-2{fill:#e20613;}.cls-3{fill:#1d1d1b;}</style></defs><title>Zeichenfläche 1</title><polygon class="cls-1" points="33.97 67.31 35.44 67.31 35.44 87 32 87 32 67.31 33.97 67.31"/><polygon class="cls-2" points="33.97 47.53 35.44 47.53 35.44 67.31 32 67.31 32 47.53 33.97 47.53"/><path class="cls-3" d="M23,34.82a2.79,2.79,0,0,0,3,1.57,8.52,8.52,0,0,1-1.95-2.22l-1.84-2.95a4.36,4.36,0,0,0-1.36-2.39,2.39,2.39,0,0,0,.55-.27A29.61,29.61,0,0,1,18.36,28a.62.62,0,0,0-.69.58c0,.37.41.75,1.12.75a3.81,3.81,0,0,0,.59-.06,2.8,2.8,0,0,1,.69,1.7c0,1.29-1.54,2.29-3.1,2.29h-.26a3.48,3.48,0,0,1-.61-1.47c0-1,.67-1.86.67-2.88a1.9,1.9,0,0,0-.43-1.18,1.79,1.79,0,0,0,.45-.54,1.11,1.11,0,0,1-.44.05c-.75,0-1.36-.19-1.95-.19-.34,0-.43.1-.43.2a.23.23,0,0,0,0,.09,2,2,0,0,0-.39-.11,3,3,0,0,0-.56-.05c-.72,0-1,.3-1,.56a2.19,2.19,0,0,0,.37.92,2.2,2.2,0,0,1,.77-.24c.38,0,.72.36.9.8a3.5,3.5,0,0,1-.57,0A4.32,4.32,0,0,1,12.26,29s0,0,0,0,.2.36.59.5a7.69,7.69,0,0,0,1.42.29.62.62,0,0,1-.28.31h-.09a6.46,6.46,0,0,1-1.38-.41s0,0,0,0c0,.27.7.87,1.33,1.1a7,7,0,0,0-1.49,2.4H12c-1.56,0-3.1-1-3.1-2.29a2.8,2.8,0,0,1,.69-1.7,3.81,3.81,0,0,0,.59.06c.71,0,1.09-.38,1.12-.75a.62.62,0,0,0-.69-.58,29.56,29.56,0,0,1-3.05.61,2.39,2.39,0,0,0,.55.27,4.36,4.36,0,0,0-1.36,2.39L5,34.17a8.52,8.52,0,0,1-2,2.22,2.79,2.79,0,0,0,3-1.57l.94-1.51a4.15,4.15,0,0,0,.26.57l-1.88,3a8.48,8.48,0,0,1-2,2.22,2.79,2.79,0,0,0,3-1.56L8,35c.12.13.25.25.38.37L6.07,39a8.44,8.44,0,0,1-2,2.21,2.78,2.78,0,0,0,3-1.56l2.22-3.56.45.27L7.07,40.68a8.45,8.45,0,0,1-1.95,2.21,2.79,2.79,0,0,0,3-1.56l2.8-4.47.5.18L8.26,42.09A8.54,8.54,0,0,1,6.31,44.3a2.79,2.79,0,0,0,3-1.56l3.37-5.38.1,0a2.78,2.78,0,0,1,.16.83,6.06,6.06,0,0,1-2.45,4.34,1.06,1.06,0,0,0,.37.05,3.41,3.41,0,0,0,.58,0,13.75,13.75,0,0,1-1.31,2.08,9.74,9.74,0,0,0-1.49-.14c-.44,0-.48.25-.48.48a1.14,1.14,0,0,0,.4.88c.08-.2.24-.47,1-.47h.08c-.24.26-1,.86-1,1.33a.88.88,0,0,0,.81.79,1,1,0,0,1,0-.27,2.06,2.06,0,0,1,.63-1.16,1.39,1.39,0,0,0,0,.19c0,.92.08,1.34.67,1.34a.93.93,0,0,0,.55-.2,1.25,1.25,0,0,1-.4-1.14c0-.13,0-.26,0-.45a2.37,2.37,0,0,0,0-.39,2.66,2.66,0,0,1,.45,0s.83-.07,1,.36c.22-.21.55-.5.55-.82s-.1-.45-.53-.45c-.16,0-.67.1-1.09.1a10.64,10.64,0,0,1,1.06-1.53,1.22,1.22,0,0,0,.4.62,4.36,4.36,0,0,1,.78-2.08,10.2,10.2,0,0,1,.15,1.81c0,2.28-.55,4-1.71,4.28a1,1,0,0,0,.8.5c.43,0,.66-.48.89-.93.12.33.46,1.16.8,1.16s.68-.82.8-1.16c.24.45.47.93.89.93a1,1,0,0,0,.8-.5c-1.16-.32-1.71-2-1.71-4.28a10.21,10.21,0,0,1,.15-1.81,4.35,4.35,0,0,1,.78,2.08,1.22,1.22,0,0,0,.4-.62,10.73,10.73,0,0,1,1.06,1.53c-.43,0-.93-.1-1.09-.1-.43,0-.53.24-.53.45s.33.61.55.82c.2-.43,1-.36,1-.36a2.66,2.66,0,0,1,.45,0,2.44,2.44,0,0,0,0,.39c0,.18,0,.31,0,.45a1.25,1.25,0,0,1-.4,1.14.93.93,0,0,0,.55.2c.58,0,.67-.42.67-1.34a1.56,1.56,0,0,0,0-.19,2.06,2.06,0,0,1,.63,1.16,1,1,0,0,1,0,.27.88.88,0,0,0,.81-.79c0-.48-.74-1.07-1-1.33h.08c.8,0,1,.27,1,.47a1.14,1.14,0,0,0,.4-.88c0-.23,0-.48-.48-.48a9.75,9.75,0,0,0-1.49.14,13.79,13.79,0,0,1-1.31-2.08,3.41,3.41,0,0,0,.58,0,1.06,1.06,0,0,0,.37-.05,6.06,6.06,0,0,1-2.45-4.34,2.79,2.79,0,0,1,.16-.83l.1,0,3.37,5.38a2.79,2.79,0,0,0,3,1.56,8.51,8.51,0,0,1-1.95-2.21L17.6,37l.5-.18,2.8,4.47a2.79,2.79,0,0,0,3,1.56,8.45,8.45,0,0,1-1.95-2.21l-2.72-4.34.45-.27,2.23,3.56a2.78,2.78,0,0,0,3,1.56A8.47,8.47,0,0,1,22.94,39l-2.28-3.65c.13-.12.26-.25.38-.37l1.62,2.59a2.79,2.79,0,0,0,3,1.56,8.47,8.47,0,0,1-2-2.22l-1.88-3a4.15,4.15,0,0,0,.26-.57ZM7.94,31.36A3.29,3.29,0,0,1,9,29.11l.21,0A2.93,2.93,0,0,0,8.41,31c0,1.64,1.76,3.07,3.74,3.07,0,.14,0,.29,0,.44a6,6,0,0,0,0,.68A4.2,4.2,0,0,1,7.94,31.36Zm3,13.46v0h0a7,7,0,0,0,1.14-.07l.27,0c.16,0,.29,0,.29.22a.81.81,0,0,1-.31.47,1.41,1.41,0,0,0-1-.26,5.28,5.28,0,0,0-.67.06h-.05v.07a3.43,3.43,0,0,1,0,.51v.45A1.6,1.6,0,0,0,11,47.36l-.18,0c-.33,0-.43-.15-.43-1.1,0-.19,0-.37,0-.49v-.18l0,0a2.62,2.62,0,0,0-1,1.55.69.69,0,0,1-.31-.48c0-.27.41-.69.89-1.17l.28-.27,0,0-.09,0a2,2,0,0,0-.46-.08,1.39,1.39,0,0,0-1.08.33A1.13,1.13,0,0,1,8.38,45a.28.28,0,0,1,.06-.2.26.26,0,0,1,.18,0h0a11,11,0,0,1,1.57.15h0a13.91,13.91,0,0,0,1.47-2.36.6.6,0,0,1,.24,0c.22,0,.28.15.35.38A7.66,7.66,0,0,0,11,44.82Zm6.08-2.36a.61.61,0,0,1,.24,0,14,14,0,0,0,1.47,2.36h0a11,11,0,0,1,1.57-.15h0a.26.26,0,0,1,.18,0,.28.28,0,0,1,.06.2,1.13,1.13,0,0,1-.14.51,1.39,1.39,0,0,0-1.08-.33,2,2,0,0,0-.46.08h-.09l.31.31c.48.48.89.89.89,1.17a.69.69,0,0,1-.31.48,2.63,2.63,0,0,0-1-1.55l0,0v.18c0,.12,0,.3,0,.49,0,1-.1,1.1-.43,1.1l-.18,0a1.6,1.6,0,0,0,.26-1.07v-.45a3.52,3.52,0,0,1,0-.51v-.07h-.05a5.28,5.28,0,0,0-.67-.06,1.41,1.41,0,0,0-1,.26A.81.81,0,0,1,16.3,45c0-.2.12-.22.29-.22l.27,0a7,7,0,0,0,1.14.07h0v0a7.67,7.67,0,0,0-1.3-2C16.79,42.62,16.85,42.47,17.07,42.47ZM14.46,29.38a2.05,2.05,0,0,0-.41-.82,1.14,1.14,0,0,0-.85-.45,2.08,2.08,0,0,0-.66.16,1.78,1.78,0,0,1-.21-.57c0-.14.24-.29.7-.29,1,0,1.62.46,1.62,1.23A1.82,1.82,0,0,1,14.46,29.38Zm.46-1a1.34,1.34,0,0,0-.25-.58c0-.2.09-.39.41-.23-.17.18,0,.49,0,.49s.35-.16.28-.4C15.85,27.78,15.47,28.48,14.91,28.37Zm2,6.79a5.62,5.62,0,0,0,0-.68c0-.13,0-.27,0-.44,2,0,3.69-1.44,3.69-3.07a2.94,2.94,0,0,0-.84-1.82l.21,0a3.29,3.29,0,0,1,1.1,2.26A4.19,4.19,0,0,1,16.89,35.17Z"/><polygon class="cls-3" points="35.44 27.94 35.44 47.63 33.97 47.63 32 47.63 32 27.94 35.44 27.94"/><path class="cls-3" d="M46.21,28.54H43.69v2.75h2.38V32H43.69v3.77h-.95v-8h3.47Z"/><path class="cls-3" d="M50.77,33.14H47.83v.38A3.52,3.52,0,0,0,48,34.75a.85.85,0,0,0,.87.55q1,0,1-1.23h.87a1.7,1.7,0,0,1-1.88,1.87,1.67,1.67,0,0,1-1.6-.79,4.17,4.17,0,0,1-.32-1.9,5.86,5.86,0,0,1,.28-2.14,1.68,1.68,0,0,1,1.71-1,1.58,1.58,0,0,1,1.6.89,5.19,5.19,0,0,1,.24,1.9Zm-.89-.6a4.07,4.07,0,0,0-.11-1.15.83.83,0,0,0-.86-.67q-.91,0-1,1.09a6.2,6.2,0,0,0,0,.72Z"/><path class="cls-3" d="M55.87,35.82H55v-.65a1.49,1.49,0,0,1-1.31.73,1.47,1.47,0,0,1-1.48-1,5.8,5.8,0,0,1-.26-2,4.83,4.83,0,0,1,.3-1.94,1.43,1.43,0,0,1,1.41-.91,1.41,1.41,0,0,1,1.27.66v-3h.89v7Q55.82,35.06,55.87,35.82ZM55,33.07a5.62,5.62,0,0,0-.17-1.64.92.92,0,0,0-1.79,0A5.2,5.2,0,0,0,52.85,33,5.31,5.31,0,0,0,53,34.57a.86.86,0,0,0,.84.69.92.92,0,0,0,.95-.7A5.06,5.06,0,0,0,55,33.07Z"/><path class="cls-3" d="M61.1,33.14H58.16v.38a3.52,3.52,0,0,0,.16,1.23.85.85,0,0,0,.87.55q1,0,1-1.23h.87a1.7,1.7,0,0,1-1.88,1.87,1.67,1.67,0,0,1-1.6-.79,4.17,4.17,0,0,1-.32-1.9,5.86,5.86,0,0,1,.28-2.14,1.68,1.68,0,0,1,1.71-1,1.58,1.58,0,0,1,1.6.89,5.19,5.19,0,0,1,.24,1.9Zm-.89-.6a4.07,4.07,0,0,0-.11-1.15.83.83,0,0,0-.86-.67q-.91,0-1,1.09a6.2,6.2,0,0,0,0,.72Z"/><path class="cls-3" d="M64.84,30.94l-.19,0a1.16,1.16,0,0,0-1,.39,1.59,1.59,0,0,0-.32,1v3.47h-.89V31.23q0-.57,0-1h.87v.73a1.51,1.51,0,0,1,1.43-.85Q64.84,30.1,64.84,30.94Z"/><path class="cls-3" d="M69.24,35.82h-.86v-.73a1.75,1.75,0,0,1-1.5.82,1.36,1.36,0,0,1-1.1-.47,1.87,1.87,0,0,1-.35-1.18,1.58,1.58,0,0,1,.91-1.6,5.2,5.2,0,0,1,2-.29v-.24a2.8,2.8,0,0,0-.11-1,.73.73,0,0,0-.76-.44,1,1,0,0,0-.67.22.77.77,0,0,0-.27.62v.06h-.88v-.06a1.29,1.29,0,0,1,.56-1.15,2.22,2.22,0,0,1,1.29-.33,1.65,1.65,0,0,1,1.35.47,2.18,2.18,0,0,1,.36,1.4V34Q69.18,35,69.24,35.82Zm-.92-2.17V33h-.22q-1.76,0-1.76,1.2t.82,1.08a1,1,0,0,0,.92-.53A2.21,2.21,0,0,0,68.32,33.65Z"/><path class="cls-3" d="M71.7,35.82h-.88v-8h.88Z"/><path class="cls-3" d="M83.17,35.82h-.92V28.47l-2.07,7.34H79.12L77,28.47v7.34h-.86v-8h1.56l1.94,7.09,1.93-7.09h1.56Z"/><path class="cls-3" d="M85.9,28.84h-1v-1h1Zm0,7H85V30.21h.88Z"/><path class="cls-3" d="M91.27,35.82h-.88V32.23a3.25,3.25,0,0,0-.1-1,.74.74,0,0,0-.77-.49,1,1,0,0,0-.88.56,2.37,2.37,0,0,0-.26,1.13v3.37h-.88V31.43q0-.75,0-1.22h.87V31a1.54,1.54,0,0,1,1.46-.89q1.48,0,1.48,1.75Z"/><path class="cls-3" d="M93.86,28.84h-1v-1h1Zm0,7h-.88V30.21h.88Z"/><path class="cls-3" d="M98.58,34.28q0,1.64-1.76,1.64T95.13,34.1H96q0,.17,0,.31.08.88.82.88a.76.76,0,0,0,.85-.87,1,1,0,0,0-.27-.73,3.31,3.31,0,0,0-.75-.49,5.58,5.58,0,0,1-1-.62,1.34,1.34,0,0,1-.42-1,1.32,1.32,0,0,1,.48-1.1,1.85,1.85,0,0,1,1.19-.36,1.6,1.6,0,0,1,1.24.41,1.9,1.9,0,0,1,.39,1.25h-.88q0-1-.79-1a.72.72,0,0,0-.55.21.77.77,0,0,0-.2.56.81.81,0,0,0,.32.65,4.54,4.54,0,0,0,.79.49,4.32,4.32,0,0,1,.94.62A1.48,1.48,0,0,1,98.58,34.28Z"/><path class="cls-3" d="M102.07,35.82a6.4,6.4,0,0,1-.65,0,1.33,1.33,0,0,1-1-.32,1.75,1.75,0,0,1-.23-1.06V30.86h-.84v-.65h.84v-1l.88-.39v1.42h1v.65h-1v3.53a1,1,0,0,0,.13.63.63.63,0,0,0,.5.16l.4,0Z"/><path class="cls-3" d="M105.52,30.94l-.19,0a1.16,1.16,0,0,0-1,.39,1.59,1.59,0,0,0-.32,1v3.47h-.89V31.23q0-.57,0-1H104v.73a1.51,1.51,0,0,1,1.43-.85Q105.52,30.1,105.52,30.94Z"/><path class="cls-3" d="M110.14,30.21l-2.25,7.73H107l.65-2.12L106,30.21h.95l1.18,4.49,1.15-4.49Z"/><path class="cls-3" d="M116.06,28.43h-.35a.56.56,0,0,0-.56.3,1.88,1.88,0,0,0-.09.68v.81h1v.65h-1v5h-.88v-5h-.82v-.65h.82V29.6a2.78,2.78,0,0,1,.22-1.3,1.24,1.24,0,0,1,1.2-.58l.45,0Z"/><path class="cls-3" d="M120.85,33a4.88,4.88,0,0,1-.35,2.17,1.69,1.69,0,0,1-1.63.78,1.67,1.67,0,0,1-1.63-.78,4.9,4.9,0,0,1-.31-2.09,4.83,4.83,0,0,1,.33-2.09,1.7,1.7,0,0,1,1.67-.88,1.62,1.62,0,0,1,1.61.81A5.1,5.1,0,0,1,120.85,33Zm-.91.6v-.86a5.26,5.26,0,0,0-.11-1.32.87.87,0,0,0-.9-.68.93.93,0,0,0-1,.72,4.76,4.76,0,0,0-.12,1.3v.8A3.53,3.53,0,0,0,118,34.7a.89.89,0,0,0,.91.59.88.88,0,0,0,.89-.57A3.18,3.18,0,0,0,119.93,33.58Z"/><path class="cls-3" d="M124.62,30.94l-.19,0a1.16,1.16,0,0,0-1,.39,1.59,1.59,0,0,0-.32,1v3.47h-.89V31.23q0-.57,0-1h.87v.73a1.51,1.51,0,0,1,1.43-.85Q124.62,30.1,124.62,30.94Z"/><path class="cls-3" d="M130.53,35.82a6.4,6.4,0,0,1-.65,0,1.33,1.33,0,0,1-1-.32,1.75,1.75,0,0,1-.23-1.06V30.86h-.84v-.65h.84v-1l.88-.39v1.42h1v.65h-1v3.53a1,1,0,0,0,.13.63.63.63,0,0,0,.5.16l.4,0Z"/><path class="cls-3" d="M135.4,35.82h-.88V32.23a3.32,3.32,0,0,0-.1-1,.74.74,0,0,0-.77-.49q-1.14,0-1.14,1.66v3.4h-.88v-8h.88v3.08a1.66,1.66,0,0,1,1.41-.77q1.47,0,1.47,1.76Z"/><path class="cls-3" d="M140.68,33.14h-2.94v.38a3.52,3.52,0,0,0,.16,1.23.85.85,0,0,0,.87.55q1,0,1-1.23h.87a1.7,1.7,0,0,1-1.88,1.87,1.67,1.67,0,0,1-1.6-.79,4.17,4.17,0,0,1-.32-1.9,5.86,5.86,0,0,1,.28-2.14,1.68,1.68,0,0,1,1.71-1,1.58,1.58,0,0,1,1.6.89,5.19,5.19,0,0,1,.24,1.9Zm-.89-.6a4.07,4.07,0,0,0-.11-1.15.83.83,0,0,0-.86-.67q-.91,0-1,1.09a6.2,6.2,0,0,0,0,.72Z"/><path class="cls-3" d="M46.53,47.63H42.74v-8h3.71v.77H43.69v2.76H46.3v.75H43.69v3h2.84Z"/><path class="cls-3" d="M51.6,47.63h-.88V44a3.25,3.25,0,0,0-.1-1,.74.74,0,0,0-.77-.49,1,1,0,0,0-.88.56,2.37,2.37,0,0,0-.26,1.13v3.37h-.88V43.25q0-.75,0-1.22h.87v.77a1.54,1.54,0,0,1,1.46-.89q1.48,0,1.48,1.75Z"/><path class="cls-3" d="M56.81,42l-1.57,5.61h-1L52.68,42h.95l1.15,4.72L56,42Z"/><path class="cls-3" d="M58.82,40.65h-1v-1h1Zm0,7h-.88V42h.88Z"/><path class="cls-3" d="M62.77,42.76l-.19,0a1.16,1.16,0,0,0-1,.39,1.59,1.59,0,0,0-.32,1v3.47h-.89V43q0-.57,0-1h.87v.73a1.51,1.51,0,0,1,1.43-.85Q62.77,41.91,62.77,42.76Z"/><path class="cls-3" d="M67.51,44.79A4.88,4.88,0,0,1,67.17,47a1.69,1.69,0,0,1-1.63.78A1.67,1.67,0,0,1,63.92,47a4.9,4.9,0,0,1-.31-2.09,4.83,4.83,0,0,1,.33-2.09,1.7,1.7,0,0,1,1.67-.88,1.62,1.62,0,0,1,1.61.81A5.1,5.1,0,0,1,67.51,44.79Zm-.91.6v-.86a5.26,5.26,0,0,0-.11-1.32.87.87,0,0,0-.9-.68.93.93,0,0,0-1,.72,4.76,4.76,0,0,0-.12,1.3v.8a3.53,3.53,0,0,0,.13,1.16.89.89,0,0,0,.91.59.88.88,0,0,0,.89-.57A3.18,3.18,0,0,0,66.6,45.39Z"/><path class="cls-3" d="M72.71,47.63h-.88V44a3.25,3.25,0,0,0-.1-1,.74.74,0,0,0-.77-.49,1,1,0,0,0-.88.56,2.37,2.37,0,0,0-.26,1.13v3.37h-.88V43.25q0-.75,0-1.22h.87v.77a1.54,1.54,0,0,1,1.46-.89q1.48,0,1.48,1.75Z"/><path class="cls-3" d="M80.55,47.63h-.88V43.86a2.39,2.39,0,0,0-.11-.87.65.65,0,0,0-.67-.41q-1,0-1,1.52v3.53H77V43.81a2.6,2.6,0,0,0-.09-.82.65.65,0,0,0-.68-.41.84.84,0,0,0-.77.49,2.36,2.36,0,0,0-.23,1.12v3.44h-.88V43q0-.5,0-1h.88v.73a1.42,1.42,0,0,1,1.32-.86,1.19,1.19,0,0,1,1.25.86,1.53,1.53,0,0,1,1.39-.86,1.2,1.2,0,0,1,1.09.5,2.62,2.62,0,0,1,.29,1.41Z"/><path class="cls-3" d="M85.83,44.95H82.89v.38A3.52,3.52,0,0,0,83,46.56a.85.85,0,0,0,.87.55q1,0,1-1.23h.87a1.7,1.7,0,0,1-1.88,1.87,1.67,1.67,0,0,1-1.6-.79A4.17,4.17,0,0,1,82,45a5.86,5.86,0,0,1,.28-2.14,1.68,1.68,0,0,1,1.71-1,1.58,1.58,0,0,1,1.6.89,5.19,5.19,0,0,1,.24,1.9Zm-.89-.6a4.07,4.07,0,0,0-.11-1.15.83.83,0,0,0-.86-.67q-.91,0-1,1.09a6.2,6.2,0,0,0,0,.72Z"/><path class="cls-3" d="M91,47.63h-.88V44a3.25,3.25,0,0,0-.1-1,.74.74,0,0,0-.77-.49,1,1,0,0,0-.88.56,2.37,2.37,0,0,0-.26,1.13v3.37h-.88V43.25q0-.75,0-1.22h.87v.77a1.54,1.54,0,0,1,1.46-.89Q91,41.9,91,43.65Z"/><path class="cls-3" d="M94.83,47.63a6.4,6.4,0,0,1-.65,0,1.33,1.33,0,0,1-1-.32,1.75,1.75,0,0,1-.23-1.06V42.67h-.84V42h.84V41l.88-.39V42h1v.65h-1v3.53a1,1,0,0,0,.13.63.63.63,0,0,0,.5.16l.4,0Z"/><path class="cls-3" d="M97,46.58l-.7,2.18h-.68l.42-2.18Z"/><path class="cls-3" d="M106.48,47.63H105l-2.71-7.23v7.23h-.87v-8h1.47l2.71,7.23V39.59h.87Z"/><path class="cls-3" d="M111.76,47.63h-.86v-.73a1.75,1.75,0,0,1-1.5.82,1.36,1.36,0,0,1-1.1-.47,1.87,1.87,0,0,1-.35-1.18,1.58,1.58,0,0,1,.91-1.6,5.2,5.2,0,0,1,2-.29v-.24a2.8,2.8,0,0,0-.11-1,.73.73,0,0,0-.76-.44,1,1,0,0,0-.67.22.77.77,0,0,0-.27.62v.06h-.88v-.06a1.29,1.29,0,0,1,.56-1.15A2.22,2.22,0,0,1,110,41.9a1.65,1.65,0,0,1,1.35.47,2.18,2.18,0,0,1,.36,1.4v2.07Q111.71,46.85,111.76,47.63Zm-.92-2.17v-.67h-.22q-1.76,0-1.76,1.2t.82,1.08a1,1,0,0,0,.92-.53A2.21,2.21,0,0,0,110.84,45.46Z"/><path class="cls-3" d="M115.38,47.63a6.4,6.4,0,0,1-.65,0,1.33,1.33,0,0,1-1-.32,1.75,1.75,0,0,1-.23-1.06V42.67h-.84V42h.84V41l.88-.39V42h1v.65h-1v3.53a1,1,0,0,0,.13.63.63.63,0,0,0,.5.16l.4,0Z"/><path class="cls-3" d="M120.29,47.63h-.88v-.71a1.6,1.6,0,0,1-1.41.8q-1.5,0-1.5-1.72V42h.88V45.6a3,3,0,0,0,.11,1,.75.75,0,0,0,.78.48q1.1,0,1.1-1.64V42h.89v4.37Q120.25,47,120.29,47.63Z"/><path class="cls-3" d="M124.24,42.76l-.19,0a1.16,1.16,0,0,0-1,.39,1.59,1.59,0,0,0-.32,1v3.47h-.89V43q0-.57,0-1h.87v.73a1.51,1.51,0,0,1,1.43-.85Q124.24,41.91,124.24,42.76Z"/><path class="cls-3" d="M128.79,44.95h-2.94v.38a3.52,3.52,0,0,0,.16,1.23.85.85,0,0,0,.87.55q1,0,1-1.23h.87a1.7,1.7,0,0,1-1.88,1.87,1.67,1.67,0,0,1-1.6-.79,4.17,4.17,0,0,1-.32-1.9,5.86,5.86,0,0,1,.28-2.14,1.68,1.68,0,0,1,1.71-1,1.58,1.58,0,0,1,1.6.89,5.19,5.19,0,0,1,.24,1.9Zm-.89-.6a4.07,4.07,0,0,0-.11-1.15.83.83,0,0,0-.86-.67q-.91,0-1,1.09a6.2,6.2,0,0,0,0,.72Z"/><path class="cls-3" d="M137.41,45.4a2.06,2.06,0,0,1-2.29,2.37,2,2,0,0,1-2-1.12,9.14,9.14,0,0,1-.32-3,9.2,9.2,0,0,1,.31-2.94,2.05,2.05,0,0,1,2.13-1.28q2.14,0,2.14,2.24v.18h-1V41.7q0-1.5-1.2-1.5a1.2,1.2,0,0,0-1.24.95,9.87,9.87,0,0,0-.2,2.47,10.23,10.23,0,0,0,.2,2.57,1.12,1.12,0,0,0,1.17.85q1.33,0,1.32-1.65v-.16h1Z"/><path class="cls-3" d="M142.41,44.79a4.88,4.88,0,0,1-.35,2.17,1.69,1.69,0,0,1-1.63.78,1.67,1.67,0,0,1-1.63-.78,4.9,4.9,0,0,1-.31-2.09,4.83,4.83,0,0,1,.33-2.09,1.7,1.7,0,0,1,1.67-.88,1.62,1.62,0,0,1,1.61.81A5.1,5.1,0,0,1,142.41,44.79Zm-.91.6v-.86a5.26,5.26,0,0,0-.11-1.32.87.87,0,0,0-.9-.68.93.93,0,0,0-1,.72,4.76,4.76,0,0,0-.12,1.3v.8a3.53,3.53,0,0,0,.13,1.16.89.89,0,0,0,.91.59.88.88,0,0,0,.89-.57A3.18,3.18,0,0,0,141.5,45.39Z"/><path class="cls-3" d="M147.61,47.63h-.88V44a3.25,3.25,0,0,0-.1-1,.74.74,0,0,0-.77-.49,1,1,0,0,0-.88.56,2.37,2.37,0,0,0-.26,1.13v3.37h-.88V43.25q0-.75,0-1.22h.87v.77a1.54,1.54,0,0,1,1.46-.89q1.48,0,1.48,1.75Z"/><path class="cls-3" d="M152.38,46.09q0,1.64-1.76,1.64t-1.69-1.81h.88q0,.17,0,.31.08.88.82.88a.76.76,0,0,0,.85-.87,1,1,0,0,0-.27-.73,3.31,3.31,0,0,0-.75-.49,5.58,5.58,0,0,1-1-.62,1.34,1.34,0,0,1-.42-1,1.32,1.32,0,0,1,.48-1.1,1.85,1.85,0,0,1,1.19-.36,1.6,1.6,0,0,1,1.24.41,1.9,1.9,0,0,1,.39,1.25h-.88q0-1-.79-1a.72.72,0,0,0-.55.21.77.77,0,0,0-.2.56.81.81,0,0,0,.32.65,4.54,4.54,0,0,0,.79.49A4.32,4.32,0,0,1,152,45,1.48,1.48,0,0,1,152.38,46.09Z"/><path class="cls-3" d="M157.32,44.95h-2.94v.38a3.52,3.52,0,0,0,.16,1.23.85.85,0,0,0,.87.55q1,0,1-1.23h.87a1.7,1.7,0,0,1-1.88,1.87,1.67,1.67,0,0,1-1.6-.79,4.17,4.17,0,0,1-.32-1.9,5.86,5.86,0,0,1,.28-2.14,1.68,1.68,0,0,1,1.71-1,1.58,1.58,0,0,1,1.6.89,5.19,5.19,0,0,1,.24,1.9Zm-.89-.6a4.07,4.07,0,0,0-.11-1.15.83.83,0,0,0-.86-.67q-.91,0-1,1.09a6.2,6.2,0,0,0,0,.72Z"/><path class="cls-3" d="M161.06,42.76l-.19,0a1.16,1.16,0,0,0-1,.39,1.59,1.59,0,0,0-.32,1v3.47h-.89V43q0-.57,0-1h.87v.73a1.51,1.51,0,0,1,1.43-.85Q161.06,41.91,161.06,42.76Z"/><path class="cls-3" d="M165.67,42l-1.57,5.61h-1L161.54,42h.95l1.15,4.72L164.82,42Z"/><path class="cls-3" d="M170.09,47.63h-.86v-.73a1.75,1.75,0,0,1-1.5.82,1.36,1.36,0,0,1-1.1-.47,1.87,1.87,0,0,1-.35-1.18,1.58,1.58,0,0,1,.91-1.6,5.2,5.2,0,0,1,2-.29v-.24a2.8,2.8,0,0,0-.11-1,.73.73,0,0,0-.76-.44,1,1,0,0,0-.67.22.77.77,0,0,0-.27.62v.06h-.88v-.06a1.29,1.29,0,0,1,.56-1.15,2.22,2.22,0,0,1,1.29-.33,1.65,1.65,0,0,1,1.35.47,2.18,2.18,0,0,1,.36,1.4v2.07Q170,46.85,170.09,47.63Zm-.92-2.17v-.67h-.22q-1.76,0-1.76,1.2t.82,1.08a1,1,0,0,0,.92-.53A2.21,2.21,0,0,0,169.17,45.46Z"/><path class="cls-3" d="M173.71,47.63a6.4,6.4,0,0,1-.65,0,1.33,1.33,0,0,1-1-.32,1.75,1.75,0,0,1-.23-1.06V42.67H171V42h.84V41l.88-.39V42h1v.65h-1v3.53a1,1,0,0,0,.13.63.63.63,0,0,0,.5.16l.4,0Z"/><path class="cls-3" d="M175.74,40.65h-1v-1h1Zm0,7h-.88V42h.88Z"/><path class="cls-3" d="M181,44.79a4.88,4.88,0,0,1-.35,2.17,1.69,1.69,0,0,1-1.63.78,1.67,1.67,0,0,1-1.63-.78,4.9,4.9,0,0,1-.31-2.09,4.83,4.83,0,0,1,.33-2.09,1.7,1.7,0,0,1,1.67-.88,1.62,1.62,0,0,1,1.61.81A5.1,5.1,0,0,1,181,44.79Zm-.91.6v-.86a5.26,5.26,0,0,0-.11-1.32.87.87,0,0,0-.9-.68.93.93,0,0,0-1,.72,4.76,4.76,0,0,0-.12,1.3v.8a3.53,3.53,0,0,0,.13,1.16.89.89,0,0,0,.91.59.88.88,0,0,0,.89-.57A3.18,3.18,0,0,0,180.13,45.39Z"/><path class="cls-3" d="M186.24,47.63h-.88V44a3.25,3.25,0,0,0-.1-1,.74.74,0,0,0-.77-.49,1,1,0,0,0-.88.56,2.37,2.37,0,0,0-.26,1.13v3.37h-.88V43.25q0-.75,0-1.22h.87v.77a1.54,1.54,0,0,1,1.46-.89q1.48,0,1.48,1.75Z"/><path class="cls-3" d="M189,46.58l-.7,2.18h-.68l.42-2.18Z"/><path class="cls-3" d="M47.12,57.24A2.15,2.15,0,0,1,46.5,59a2.78,2.78,0,0,1-1.79.47h-2v-8h2.14a2.29,2.29,0,0,1,1.59.47A2,2,0,0,1,47,53.41a2.16,2.16,0,0,1-.26,1.16,1.58,1.58,0,0,1-.95.67,1.62,1.62,0,0,1,1.08.7A2.56,2.56,0,0,1,47.12,57.24ZM46,53.47a1.28,1.28,0,0,0-.37-1,1.64,1.64,0,0,0-1-.27h-.94V54.9h1Q46,54.9,46,53.47Zm.12,3.73A1.73,1.73,0,0,0,45.81,56a1.43,1.43,0,0,0-1.12-.38h-1v3h.86a2,2,0,0,0,1.2-.28A1.47,1.47,0,0,0,46.15,57.19Z"/><path class="cls-3" d="M52.39,59.44h-.88v-.71a1.6,1.6,0,0,1-1.41.8q-1.5,0-1.5-1.72v-4h.88v3.58a3,3,0,0,0,.11,1,.75.75,0,0,0,.78.48q1.1,0,1.1-1.64v-3.4h.89V58.2Q52.35,58.86,52.39,59.44Z"/><path class="cls-3" d="M54.93,52.47H54v-1h1Zm0,7H54V53.83h.88Z"/><path class="cls-3" d="M57.43,59.44h-.88v-8h.88Z"/><path class="cls-3" d="M62.78,59.44h-.86v-.65a1.49,1.49,0,0,1-1.31.73,1.47,1.47,0,0,1-1.48-1,5.8,5.8,0,0,1-.26-2,4.83,4.83,0,0,1,.3-1.94,1.43,1.43,0,0,1,1.41-.91,1.41,1.41,0,0,1,1.27.66v-3h.89v7Q62.74,58.68,62.78,59.44Zm-.9-2.75a5.62,5.62,0,0,0-.17-1.64.92.92,0,0,0-1.79,0,5.2,5.2,0,0,0-.16,1.49,5.31,5.31,0,0,0,.18,1.61.86.86,0,0,0,.84.69.92.92,0,0,0,.95-.7A5.06,5.06,0,0,0,61.88,56.69Z"/><path class="cls-3" d="M65.32,52.47h-1v-1h1Zm0,7H64.4V53.83h.88Z"/><path class="cls-3" d="M70.7,59.44h-.88V55.86a3.25,3.25,0,0,0-.1-1,.74.74,0,0,0-.77-.49,1,1,0,0,0-.88.56,2.37,2.37,0,0,0-.26,1.13v3.37h-.88V55.06q0-.75,0-1.22h.87v.77a1.54,1.54,0,0,1,1.46-.89q1.48,0,1.48,1.75Z"/><path class="cls-3" d="M76.06,53.83q0,.12,0,.44t0,.5v4.91a2,2,0,0,1-.48,1.49,2.12,2.12,0,0,1-1.53.47q-1.74,0-1.76-1.62h.94q0,1,.87,1a.89.89,0,0,0,.9-.49,2.64,2.64,0,0,0,.16-1.07v-.76a1.51,1.51,0,0,1-1.3.66,1.43,1.43,0,0,1-1.44-.88,4.72,4.72,0,0,1-.26-1.8,5.56,5.56,0,0,1,.28-2,1.43,1.43,0,0,1,1.43-1,1.41,1.41,0,0,1,1.35.78v-.66Zm-.91,2.62a4.65,4.65,0,0,0-.16-1.4.94.94,0,0,0-1.83.09A6.27,6.27,0,0,0,73,56.69a5,5,0,0,0,.13,1.38.85.85,0,0,0,.86.69,1,1,0,0,0,1-.83A6.08,6.08,0,0,0,75.15,56.46Z"/><path class="cls-3" d="M83.84,59.44H83v-.73a1.75,1.75,0,0,1-1.5.82,1.36,1.36,0,0,1-1.1-.47A1.87,1.87,0,0,1,80,57.88a1.58,1.58,0,0,1,.91-1.6,5.2,5.2,0,0,1,2-.29v-.24a2.8,2.8,0,0,0-.11-1,.73.73,0,0,0-.76-.44,1,1,0,0,0-.67.22.77.77,0,0,0-.27.62v.06h-.88v-.06A1.29,1.29,0,0,1,80.79,54a2.22,2.22,0,0,1,1.29-.33,1.65,1.65,0,0,1,1.35.47,2.18,2.18,0,0,1,.36,1.4v2.07Q83.78,58.66,83.84,59.44Zm-.92-2.17V56.6h-.22q-1.76,0-1.76,1.2t.82,1.08a1,1,0,0,0,.92-.53A2.21,2.21,0,0,0,82.91,57.27Z"/><path class="cls-3" d="M89.18,59.44H88.3V55.86a3.25,3.25,0,0,0-.1-1,.74.74,0,0,0-.77-.49,1,1,0,0,0-.88.56,2.37,2.37,0,0,0-.26,1.13v3.37h-.88V55.06q0-.75,0-1.22h.87v.77a1.54,1.54,0,0,1,1.46-.89q1.48,0,1.48,1.75Z"/><path class="cls-3" d="M94.54,59.44h-.86v-.65a1.49,1.49,0,0,1-1.31.73,1.47,1.47,0,0,1-1.48-1,5.8,5.8,0,0,1-.26-2,4.83,4.83,0,0,1,.3-1.94,1.43,1.43,0,0,1,1.41-.91,1.41,1.41,0,0,1,1.27.66v-3h.89v7Q94.49,58.68,94.54,59.44Zm-.9-2.75a5.62,5.62,0,0,0-.17-1.64.92.92,0,0,0-1.79,0,5.2,5.2,0,0,0-.16,1.49,5.31,5.31,0,0,0,.18,1.61.86.86,0,0,0,.84.69.92.92,0,0,0,.95-.7A5.06,5.06,0,0,0,93.63,56.69Z"/><path class="cls-3" d="M104,59.44h-1.47l-2.71-7.23v7.23H99v-8h1.47l2.71,7.23V51.4H104Z"/><path class="cls-3" d="M109.63,59.44h-.88v-.71a1.6,1.6,0,0,1-1.41.8q-1.5,0-1.5-1.72v-4h.88v3.58a3,3,0,0,0,.11,1,.75.75,0,0,0,.78.48q1.1,0,1.1-1.64v-3.4h.89V58.2Q109.59,58.86,109.63,59.44Z"/><path class="cls-3" d="M114.7,57.69q0,1.86-1.75,1.86a1.65,1.65,0,0,1-1.61-.78,4.76,4.76,0,0,1-.31-2,5.45,5.45,0,0,1,.28-2.07,1.65,1.65,0,0,1,1.67-.95,1.76,1.76,0,0,1,1.36.44,2.07,2.07,0,0,1,.37,1.37h-.87q0-1.18-.87-1.18a.89.89,0,0,0-.9.75,6.55,6.55,0,0,0-.12,1.55,5.41,5.41,0,0,0,.19,1.75.79.79,0,0,0,.8.53.78.78,0,0,0,.73-.37,1.89,1.89,0,0,0,.17-.86Z"/><path class="cls-3" d="M116.82,59.44h-.88v-8h.88Z"/><path class="cls-3" d="M122.09,56.76h-2.94v.38a3.52,3.52,0,0,0,.16,1.23.85.85,0,0,0,.87.55q1,0,1-1.23h.87a1.7,1.7,0,0,1-1.88,1.87,1.67,1.67,0,0,1-1.6-.79,4.17,4.17,0,0,1-.32-1.9,5.86,5.86,0,0,1,.28-2.14,1.68,1.68,0,0,1,1.71-1,1.58,1.58,0,0,1,1.6.89,5.19,5.19,0,0,1,.24,1.9Zm-.89-.6a4.07,4.07,0,0,0-.11-1.15.83.83,0,0,0-.86-.67q-.91,0-1,1.09a6.2,6.2,0,0,0,0,.72Z"/><path class="cls-3" d="M127,59.44h-.86v-.73a1.75,1.75,0,0,1-1.5.82,1.36,1.36,0,0,1-1.1-.47,1.87,1.87,0,0,1-.35-1.18,1.58,1.58,0,0,1,.91-1.6,5.2,5.2,0,0,1,2-.29v-.24a2.8,2.8,0,0,0-.11-1,.73.73,0,0,0-.76-.44,1,1,0,0,0-.67.22.77.77,0,0,0-.27.62v.06h-.88v-.06a1.29,1.29,0,0,1,.56-1.15,2.22,2.22,0,0,1,1.29-.33,1.65,1.65,0,0,1,1.35.47,2.18,2.18,0,0,1,.36,1.4v2.07Q126.92,58.66,127,59.44ZM126,57.27V56.6h-.22q-1.76,0-1.76,1.2t.82,1.08a1,1,0,0,0,.92-.53A2.21,2.21,0,0,0,126,57.27Z"/><path class="cls-3" d="M130.89,54.57l-.19,0a1.16,1.16,0,0,0-1,.39,1.59,1.59,0,0,0-.32,1v3.47h-.89V54.86q0-.57,0-1h.87v.73a1.51,1.51,0,0,1,1.43-.85Q130.89,53.72,130.89,54.57Z"/><path class="cls-3" d="M138.82,57.47a2,2,0,0,1-.59,1.58,2.32,2.32,0,0,1-1.61.53,2.28,2.28,0,0,1-1.73-.57,2.46,2.46,0,0,1-.52-1.75v-.09h1v.09a2,2,0,0,0,.24,1.11,1.13,1.13,0,0,0,1,.46q1.22,0,1.22-1.3a1.46,1.46,0,0,0-.42-1.08,6.62,6.62,0,0,0-1-.67,8.37,8.37,0,0,1-1.4-1,2.14,2.14,0,0,1-.57-1.53,1.88,1.88,0,0,1,.62-1.51,2.32,2.32,0,0,1,1.57-.5q2.08,0,2.08,1.95v.27h-1v-.19a1.5,1.5,0,0,0-.22-.91,1.12,1.12,0,0,0-.94-.36,1.15,1.15,0,0,0-.87.32,1.21,1.21,0,0,0-.31.88,1.46,1.46,0,0,0,.52,1.15l1.14.73a6.19,6.19,0,0,1,1.2.89A2.16,2.16,0,0,1,138.82,57.47Z"/><path class="cls-3" d="M143.68,59.44h-.86v-.73a1.75,1.75,0,0,1-1.5.82,1.36,1.36,0,0,1-1.1-.47,1.87,1.87,0,0,1-.35-1.18,1.58,1.58,0,0,1,.91-1.6,5.2,5.2,0,0,1,2-.29v-.24a2.8,2.8,0,0,0-.11-1,.73.73,0,0,0-.76-.44,1,1,0,0,0-.67.22.77.77,0,0,0-.27.62v.06h-.88v-.06a1.29,1.29,0,0,1,.56-1.15,2.22,2.22,0,0,1,1.29-.33,1.65,1.65,0,0,1,1.35.47,2.18,2.18,0,0,1,.36,1.4v2.07Q143.63,58.66,143.68,59.44Zm-.92-2.17V56.6h-.22q-1.76,0-1.76,1.2t.82,1.08a1,1,0,0,0,.92-.53A2.21,2.21,0,0,0,142.76,57.27Z"/><path class="cls-3" d="M147.42,52.05h-.35a.56.56,0,0,0-.56.3,1.88,1.88,0,0,0-.09.68v.81h1v.65h-1v5h-.88v-5h-.82v-.65h.82v-.61a2.78,2.78,0,0,1,.22-1.3,1.24,1.24,0,0,1,1.2-.58l.45,0Z"/><path class="cls-3" d="M152,56.76h-2.94v.38a3.52,3.52,0,0,0,.16,1.23.85.85,0,0,0,.87.55q1,0,1-1.23H152a1.7,1.7,0,0,1-1.88,1.87,1.67,1.67,0,0,1-1.6-.79,4.17,4.17,0,0,1-.32-1.9,5.86,5.86,0,0,1,.28-2.14,1.68,1.68,0,0,1,1.71-1,1.58,1.58,0,0,1,1.6.89,5.19,5.19,0,0,1,.24,1.9Zm-.89-.6A4.07,4.07,0,0,0,151,55a.83.83,0,0,0-.86-.67q-.91,0-1,1.09a6.2,6.2,0,0,0,0,.72Z"/><path class="cls-3" d="M155.59,59.44a6.4,6.4,0,0,1-.65,0,1.33,1.33,0,0,1-1-.32,1.75,1.75,0,0,1-.23-1.06V54.48h-.84v-.65h.84v-1l.88-.39v1.42h1v.65h-1V58a1,1,0,0,0,.13.63.63.63,0,0,0,.5.16l.4,0Z"/><path class="cls-3" d="M160.25,53.83,158,61.56h-.86l.65-2.12-1.68-5.61h.95l1.18,4.49,1.15-4.49Z"/></svg>