<svg xmlns="http://www.w3.org/2000/svg" xmlns:xlink="http://www.w3.org/1999/xlink" viewBox="0 0 136 64"><path fill="#001689" d="M.398 61.834v-6.92h4.195v.776H1.48v2.138H4.5v.775H1.48v2.45h3.154v.78M8.703 61.834v-.414c-.714.362-1.276.533-1.713.533-.526 0-.892-.18-1.108-.488-.206-.3-.25-.593-.25-1.298v-3.24h1.016v2.99c0 .677 0 1.15.748 1.15.364 0 .81-.08 1.255-.236V56.93h1.017v4.907h-.964M13.356 57.755c-.437 0-.786.06-1.236.26v3.82H11.1v-4.908h.97v.466c.517-.385.924-.542 1.39-.542.104 0 .218.01.218.01v.906c-.153-.02-.226-.01-.322-.01M16.292 61.933c-1.443 0-2.273-.938-2.273-2.557 0-1.59.852-2.567 2.272-2.567 1.465 0 2.277.92 2.277 2.566-.002 1.64-.826 2.557-2.278 2.557m0-4.352c-.81 0-1.193.56-1.193 1.786 0 1.276.383 1.798 1.204 1.798.827 0 1.182-.523 1.182-1.778 0-1.26-.34-1.805-1.194-1.805M22.17 61.953c-.528 0-1.03-.306-1.462-.563v2.525H19.69v-6.988h.968v.434c.578-.32 1.16-.552 1.648-.552 1.038 0 1.66.957 1.66 2.546 0 1.566-.715 2.6-1.795 2.6m-.302-4.27c-.278 0-.56.07-1.16.28v2.825c.61.218.828.277 1.13.277.685 0 1.05-.56 1.05-1.66 0-1.18-.34-1.722-1.02-1.722M25.858 59.51v.168c0 .985.413 1.433 1.182 1.433.446 0 .848-.08 1.65-.342l.188.607c-1.02.44-1.517.578-2.104.578-1.208 0-2-.9-2-2.41 0-1.653.81-2.735 2.172-2.735 1.32 0 1.984.802 1.984 2.477v.224h-3.072m1.173-1.984c-.665 0-1.06.478-1.14 1.394l2.074-.087c-.02-.89-.31-1.307-.933-1.307M32.49 61.834v-.444c-.62.362-1.063.563-1.5.563-.688 0-1.28-.524-1.28-1.54 0-.633.244-1.016.64-1.242.473-.273 1.205-.312 2.1-.312v-.165c0-.75 0-1.052-.88-1.052-.363 0-.825.053-1.446.167l-.103-.644c.81-.235 1.476-.353 2.007-.353.58 0 .953.147 1.174.46.194.28.246.603.246 1.516v3.05h-.955m-.04-2.387c-1.37.094-1.723.29-1.723.932 0 .52.262.768.642.768.393 0 1.08-.288 1.08-.288V59.45zM37.842 61.834v-2.986c0-.676 0-1.156-.75-1.156-.363 0-.81.083-1.254.24v3.902h-1.02v-4.907h.965v.415c.718-.365 1.267-.533 1.733-.533.497 0 .883.19 1.104.51.195.29.24.526.24 1.31v3.205h-1.018M44.02 55.69v2.138h2.948v.775h-2.95v3.23h-1.08v-6.92h4.103v.777M49.87 61.933c-1.443 0-2.273-.938-2.273-2.557 0-1.59.856-2.567 2.274-2.567 1.466 0 2.276.92 2.276 2.566 0 1.64-.82 2.557-2.275 2.557m0-4.352c-.805 0-1.19.56-1.19 1.786 0 1.276.385 1.798 1.202 1.798.83 0 1.18-.523 1.18-1.778 0-1.26-.337-1.805-1.19-1.805M55.23 61.933c-1.444 0-2.273-.938-2.273-2.557 0-1.59.85-2.567 2.274-2.567 1.463 0 2.272.92 2.272 2.566 0 1.64-.818 2.557-2.27 2.557m0-4.352c-.812 0-1.2.56-1.2 1.786 0 1.276.388 1.798 1.21 1.798.83 0 1.184-.523 1.184-1.778 0-1.26-.344-1.805-1.195-1.805M61.63 61.835v-.445c-.587.334-1.143.563-1.634.563-1.057 0-1.68-.966-1.68-2.556 0-1.57.713-2.588 1.796-2.588.528 0 1.03.28 1.462.538v-2.883h1.02v7.37h-.965m-.056-3.87c-.623-.22-.82-.273-1.122-.273-.682 0-1.057.56-1.057 1.663 0 1.184.343 1.722 1.02 1.722.275 0 .558-.06 1.16-.288v-2.825zM68.24 61.922c-.654 0-1.233-.11-2.057-.335l.2-.78c.68.17 1.257.26 1.755.26.787 0 1.505-.393 1.505-1.12 0-.478-.156-.707-.79-.944-1.197-.448-2.598-.61-2.598-2.195 0-1.22.865-1.966 2.226-1.966.56 0 1.173.09 1.94.293l-.166.76c-.507-.102-1.19-.22-1.647-.22-.687 0-1.268.348-1.268 1.05 0 .574.205.752 1.315 1.06 1.466.406 2.067.817 2.067 2.004 0 1.332-.952 2.132-2.482 2.132M74.253 61.834v-.444c-.624.362-1.07.563-1.504.563-.684 0-1.28-.524-1.28-1.54 0-.633.252-1.016.644-1.242.47-.273 1.208-.312 2.096-.312v-.165c0-.75 0-1.052-.88-1.052-.363 0-.825.053-1.445.167l-.103-.644c.813-.235 1.474-.353 2.007-.353.582 0 .95.147 1.17.46.198.28.248.603.248 1.516v3.05h-.955m-.043-2.387c-1.363.094-1.72.29-1.72.932 0 .52.26.768.645.768.392 0 1.076-.288 1.076-.288V59.45zM79.404 55.136c-.094-.018-.425-.058-.85-.058-.53 0-.666.205-.666.902v.947h1.368v.698h-1.368v4.21h-1.01v-4.21h-.86v-.594l.86-.117v-.81c0-.724.058-.985.24-1.253.24-.352.613-.53 1.134-.53.52 0 1.104.145 1.26.188l-.108.628M80.618 59.51v.168c0 .985.416 1.433 1.187 1.433.444 0 .848-.08 1.65-.342l.184.607c-1.02.44-1.512.578-2.105.578-1.207 0-2-.9-2-2.41 0-1.653.816-2.735 2.17-2.735 1.323 0 1.985.802 1.985 2.477v.224h-3.072m1.174-1.984c-.667 0-1.058.478-1.142 1.394l2.078-.087c-.02-.89-.313-1.307-.936-1.307M86.11 61.953c-.477 0-.83-.2-1.006-.542-.114-.215-.147-.468-.147-1.13v-2.656h-.83v-.564l.83-.105v-1.357h1.02v1.328h1.35v.697h-1.35v2.363c0 .832.012.854.082.98.073.123.216.183.434.183.24 0 .468-.04.865-.144l.15.623c-.59.226-.994.323-1.4.323M90.36 62.45c-.466 1.267-.777 1.55-1.695 1.55-.23 0-.413-.016-.75-.075l.074-.644c.188.025.304.025.42.025.67 0 .714-.075 1.137-1.104l.172-.403-2.01-4.87h1.12l1.402 3.715 1.25-3.715h.922L90.36 62.45M100.148 61.834l-.608-1.75h-2.857l-.6 1.75h-.978l2.442-6.92h1.235l2.51 6.92h-1.144zm-2.063-6.04l-1.152 3.53h2.334l-1.182-3.53zM105.08 61.834v-.414c-.713.362-1.272.533-1.708.533-.532 0-.895-.18-1.113-.488-.21-.3-.252-.593-.252-1.298v-3.24h1.018v2.99c0 .677 0 1.15.748 1.15.362 0 .81-.08 1.258-.236V56.93h1.016v4.907h-.968M108.806 61.953c-.476 0-.826-.2-1.002-.542-.117-.215-.147-.468-.147-1.13v-2.656h-.83v-.564l.83-.105v-1.357h1.017v1.328h1.35v.697h-1.35v2.363c0 .832.012.854.086.98.073.123.217.183.435.183.24 0 .465-.04.863-.144l.15.623c-.587.226-.993.323-1.402.323M114.11 61.834v-2.986c0-.676 0-1.156-.75-1.156-.363 0-.81.083-1.26.24v3.902h-1.013v-7.37h1.014v2.856c.677-.334 1.22-.51 1.688-.51.496 0 .88.19 1.096.51.2.29.24.526.24 1.31v3.205h-1.015M118.456 61.933c-1.443 0-2.276-.938-2.276-2.557 0-1.59.856-2.567 2.276-2.567 1.463 0 2.276.92 2.276 2.566 0 1.64-.823 2.557-2.276 2.557m0-4.352c-.81 0-1.19.56-1.19 1.786 0 1.276.38 1.798 1.202 1.798.83 0 1.184-.523 1.184-1.778 0-1.26-.345-1.805-1.196-1.805M124.105 57.755c-.437 0-.787.06-1.236.26v3.82h-1.017v-4.908h.968v.466c.515-.385.924-.542 1.39-.542.1 0 .22.01.22.01v.906c-.157-.02-.23-.01-.325-.01M125.725 55.97c-.343 0-.624-.27-.624-.614 0-.342.27-.614.615-.614.333 0 .6.273.6.614 0 .334-.256.615-.59.615m-.515.957h1.014v4.907h-1.014v-4.907zM128.984 61.953c-.476 0-.827-.2-1.005-.542-.116-.215-.144-.468-.144-1.13v-2.656h-.832v-.564l.832-.105v-1.357h1.015v1.328h1.35v.697h-1.35v2.363c0 .832.01.854.083.98.072.123.22.183.44.183.238 0 .464-.04.857-.144l.16.623c-.595.226-.996.323-1.406.323M133.23 62.45c-.465 1.267-.775 1.55-1.69 1.55-.227 0-.416-.016-.747-.075l.075-.644c.187.025.3.025.413.025.68 0 .717-.075 1.146-1.104l.162-.403-2.003-4.87h1.125l1.4 3.715 1.245-3.715h.927l-2.052 5.524"/><path fill-rule="evenodd" clip-rule="evenodd" fill="#001689" d="M115.567 33.013h19.91v13.234h-19.91z"/><path fill-rule="evenodd" clip-rule="evenodd" fill="#FD0" d="M125.504 34.362l.203.58.62.007-.488.372.178.587-.505-.345-.506.352.172-.59-.494-.365.618-.017M125.573 43.163l.204.58.62.01-.488.377.178.59-.505-.348-.507.357.172-.595-.494-.368.62-.02M127.688 34.912l.206.582.618.005-.492.38.188.588-.51-.35-.51.357.177-.59-.496-.373.615-.015M127.748 42.58l.206.582.62.01-.494.377.188.587-.51-.346-.51.355.177-.59-.495-.37.615-.02M123.335 34.946l.212.582.61.004-.483.38.178.59-.507-.35-.504.358.175-.592-.494-.373.62-.014M123.395 42.58l.212.58.61.01-.483.377.178.59-.508-.353-.503.36.176-.592-.495-.37.62-.02M129.34 36.494l.205.582.62.01-.49.375.183.59-.51-.347-.5.356.172-.594-.5-.367.618-.02M129.374 40.96l.206.576.62.01-.49.38.183.587-.51-.35-.5.36.172-.59-.5-.375.617-.018M121.76 36.553l.21.582.614.01-.484.375.182.59-.513-.347-.503.356.17-.594-.49-.368.614-.02M121.794 40.975l.21.58.615.01-.485.377.182.59-.513-.35-.503.36.172-.595-.49-.368.614-.02M129.99 38.7l.206.585.615.006-.49.377.188.592-.51-.35-.507.357.177-.595-.494-.368.614-.016M121.186 38.77l.208.584.62.007-.494.377.186.59-.51-.35-.502.36.17-.595-.49-.37.615-.015"/><path fill="#001689" d="M47.817 36.722v.68c0 4.05 1.705 5.883 4.858 5.883 1.832 0 3.495-.342 6.777-1.406l.765 2.47c-4.175 1.833-6.22 2.387-8.65 2.387-4.944 0-8.185-3.664-8.185-9.888 0-6.78 3.326-11.21 8.91-11.21 5.412 0 8.14 3.282 8.14 10.144v.938H47.816m4.816-8.14c-2.727 0-4.347 1.96-4.688 5.713l8.525-.342c-.086-3.663-1.28-5.372-3.837-5.372M76.5 18.778c-.385-.085-1.748-.257-3.495-.257-2.174 0-2.727.856-2.727 3.713v3.875h5.626v2.857h-5.626v17.303h-4.135V28.965h-3.537v-2.43l3.537-.47v-3.322c0-2.986.214-4.05.98-5.157.98-1.45 2.514-2.173 4.645-2.173 2.13 0 4.52.595 5.157.767l-.426 2.598M84.214 46.695c-2.046 0-3.836-.296-6.394-.938l.684-2.814c2.046.468 3.58.64 4.985.64 2.813 0 4.26-1.022 4.26-2.9 0-1.574-.595-2.215-3.367-2.982-3.706-1.02-6.393-2.258-6.393-5.882 0-3.876 2.688-6.134 7.12-6.134 1.662 0 3.62.34 5.837 1.064l-.595 2.642c-1.406-.3-3.238-.638-4.728-.638-2.177 0-3.455.895-3.455 2.598 0 4.262 9.845 1.493 9.845 8.697-.002 4.22-2.86 6.648-7.8 6.648M106.248 46.268v-1.832c-2.557 1.49-4.39 2.3-6.18 2.3-2.814 0-5.244-2.127-5.244-6.308 0-2.597 1.025-4.175 2.642-5.112 1.92-1.11 4.946-1.28 8.61-1.28v-.682c0-3.066 0-4.306-3.622-4.306-1.49 0-3.368.215-5.925.683l-.427-2.644c3.324-.98 6.055-1.448 8.226-1.448 2.386 0 3.922.598 4.817 1.877.81 1.148 1.022 2.472 1.022 6.22v12.53h-3.922m-.173-9.8C100.452 36.85 99 37.66 99 40.306c0 2.127 1.067 3.152 2.643 3.152 1.62 0 4.43-1.194 4.43-1.194v-5.797z"/><defs><path id="a" d="M34.346 34.266l-1.79.357 2.128.528.562 1.34.843-1.017 2.144.453-1.62-1.13.753-1.04-1.83.295-1.664-1.136.473 1.352zm-11.924-.71l-2.26.602 2.65.513.646 1.69 1.102-1.38 2.674.423-1.986-1.336.987-1.41-2.31.526-2.032-1.334.53 1.705zm-10.46-6.138l-3.11.783 3.613.82.853 2.44 1.537-1.933 3.652.694-2.694-1.985 1.393-1.97-3.18.673-2.756-1.978.693 2.458zm35.933-10.33l-1.79.355 2.127.528.562 1.34.84-1.017 2.15.453-1.623-1.13.753-1.04-1.83.296-1.66-1.137.472 1.352zm-43.444.718l-3.81.885 4.42 1.148 1.008 3.085 1.9-2.38 4.458.988-3.27-2.57 1.717-2.438-3.888.746-3.358-2.57.824 3.108zm36.922-7.81l-2.466.49 2.932.728.774 1.843 1.16-1.4 2.957.625-2.234-1.556 1.036-1.432-2.52.407-2.292-1.564.652 1.86zM31.345 4.4l-3 .587 3.535.968.89 2.357 1.444-1.76 3.572.848-2.672-2.02 1.3-1.8-3.077.475-2.728-2.03.735 2.374zM5.21 5.84L0 6.954l6.046 1.702 1.404 4.28L10.04 9.7l6.1 1.49-4.488-3.63L14 4.256l-5.325.92-4.6-3.64L5.212 5.84zM18.905 0l.817 2.898-3.57.71 4.166 1.195.998 2.894L23.06 5.54l4.197 1.05-3.103-2.487 1.572-2.2-3.64.575L18.905 0z"/></defs><clipPath id="b"><use xlink:href="#a" overflow="visible"/></clipPath><linearGradient id="c" gradientUnits="userSpaceOnUse" x1="-580.775" y1="456.372" x2="-580.21" y2="456.372" gradientTransform="matrix(91.575 0 0 -91.575 53184.453 41810.484)"><stop offset="0" stop-color="#EF7622"/><stop offset=".166" stop-color="#F07927"/><stop offset=".368" stop-color="#F28236"/><stop offset=".59" stop-color="#F6924F"/><stop offset=".825" stop-color="#FBA771"/><stop offset="1" stop-color="#FFBA90"/></linearGradient><path clip-path="url(#b)" fill="url(#c)" d="M0 0h51.784v36.488H0z"/></svg>